<svg xmlns="http://www.w3.org/2000/svg" viewBox="0 0 124.17 79.4"><defs><style>.cls-1{isolation:isolate;}.cls-2{fill:#ecf7c9;}.cls-3{fill:#f0f7db;}.cls-4{fill:#ffa83f;}.cls-5{fill:#fff;opacity:0.5;mix-blend-mode:soft-light;}.cls-6{fill:#e7f2c5;}.cls-7{fill:#e4eec1;}.cls-8{fill:#f7ffe1;}.cls-9{fill:#008700;}.cls-10{fill:#00a400;}.cls-11{fill:#00c200;}.cls-12{fill:#f8e682;}</style></defs><title>工作區域 1</title><g class="cls-1"><g id="圖層_2" data-name="圖層 2"><path class="cls-2" d="M13.41,18.56A5,5,0,0,1,14,16.3c-.21.81-.39,1.63-.55,2.46Z"/><path class="cls-3" d="M113.66,18.67c0,8.36-22.44,15.14-50.12,15.14S13.41,27,13.41,18.67,35.85,3.52,63.54,3.52,113.66,10.3,113.66,18.67Z"/><path class="cls-4" d="M113.66,30.54c0,8.37-22.44,15.15-50.12,15.15S13.41,38.91,13.41,30.54c0-4.87,7.62-9.21,19.48-12A138.23,138.23,0,0,1,63.54,15.4c24.1,0,44.24,5.14,49,12A5.47,5.47,0,0,1,113.66,30.54Z"/><path class="cls-5" d="M112.58,27.39a141.16,141.16,0,0,1-28.92,2.78c-11.23,0-13.48-7.15-23.13-7.39-21.83-.54-28.66.26-27.64-4.22A138.23,138.23,0,0,1,63.54,15.4C87.64,15.4,107.78,20.54,112.58,27.39Z"/><path class="cls-6" d="M91.88,66.61c0,5.07-12.88,9.18-28.77,9.18s-28.77-4.11-28.77-9.18,12.88-9.17,28.77-9.17S91.88,61.55,91.88,66.61Z"/><path class="cls-7" d="M114.27,26.74a43.28,43.28,0,0,1-9.33,26.72C95.74,65.27,80.59,73,63.47,73c-28.06,0-50.81-20.7-50.81-46.24a42.08,42.08,0,0,1,.75-8c.13,3.07,3.23,5.91,8.46,8.28,9,4.09,24.3,6.77,41.67,6.77,26.9,0,48.85-6.45,50.07-14.54A41.93,41.93,0,0,1,114.27,26.74Z"/><path class="cls-6" d="M104.35,53.91A53.65,53.65,0,0,1,71.79,64.65C47,64.65,26.31,48.46,21.87,27a57.19,57.19,0,0,0,9.2,3.14c7.2,17.56,25.8,30.06,47.61,30.06A54.43,54.43,0,0,0,104.35,53.91Z"/><path class="cls-2" d="M114.27,26.74a43.28,43.28,0,0,1-9.33,26.72l-.59.45a54.43,54.43,0,0,1-25.67,6.33c-21.81,0-40.41-12.5-47.61-30.06,8.74,2.27,20.08,3.63,32.47,3.63,22.84,0,42.12-4.65,48.15-11a6.55,6.55,0,0,0,1.92-3.53c.14.81.27,1.62.36,2.44A41.81,41.81,0,0,1,114.27,26.74Z"/><path class="cls-8" d="M63.11,3.52C35.43,3.52,13,10.3,13,18.67S35.43,33.81,63.11,33.81,113.24,27,113.24,18.67,90.8,3.52,63.11,3.52Zm0,28.82c-28.67,0-48.65-7.2-48.65-13.67S34.44,5,63.11,5s48.66,7.2,48.66,13.67S91.79,32.34,63.11,32.34Z"/><path class="cls-9" d="M66.52,22.8S64,17.41,60.33,17.61,52.7,28,52.7,28s7.89-3.63,9.65-4.95A4.14,4.14,0,0,1,66.52,22.8Z"/><path class="cls-10" d="M66.28,22.64s-2.5-3.06-.75-7.87C65.53,14.77,68.94,17.77,66.28,22.64Z"/><path class="cls-10" d="M68.74,27.39s-4.32-.58-2.56-5.39C66.18,22,71.4,22.51,68.74,27.39Z"/><path class="cls-10" d="M64.9,21.62s-2.7-3.05-5.34-1a53.32,53.32,0,0,0-6.51,7s8.71-5.06,9.8-5.13A4.19,4.19,0,0,0,64.9,21.62Z"/><path class="cls-11" d="M66.61,21.82s1.4-4.56-.79-6.6C65.82,15.22,66,20.58,66.61,21.82Z"/><path class="cls-11" d="M66.73,22.36s1.88,2.88,1.93,5C68.66,27.39,71.18,23.19,66.73,22.36Z"/><path class="cls-12" d="M75.91,22.81s3.93-4.92,6.38-2.89S84,24.15,84,24.15,76,24.48,75.91,22.81Z"/><path class="cls-12" d="M44.53,24.69s.13-6.78,2.58-4.75,1.72,4.23,1.72,4.23S44.6,26.36,44.53,24.69Z"/><path class="cls-12" d="M60.5,29.64s.82-3.49,3.75-2.25c1.51.63.55,1.73.55,1.73S60.56,31.31,60.5,29.64Z"/><path d="M16.42,54.19c1.64-2.34,4.38-5.42,6.7-5.42,1.32,0,2.31.89,2.31,2.81a9.27,9.27,0,0,1-.3,2.33c1.67-2.27,4.35-5.14,6.65-5.14a2.23,2.23,0,0,1,2.35,2.51c0,3.56-5.18,8.09-5.18,11.35,0,1.11.61,1.74,1.42,1.74,1.27,0,2.85-1.78,4.12-3.76a.4.4,0,0,1,.35-.23.41.41,0,0,1,.4.41.55.55,0,0,1-.08.28c-1.38,2.15-3,4.15-5,4.15a2.36,2.36,0,0,1-2.42-2.61c0-3.54,5.18-8.13,5.18-11.35,0-1-.47-1.58-1.28-1.58-1.72,0-4.25,2.63-6.09,5.2A26.08,26.08,0,0,0,23.22,59c-.85,1.72-2,4.25-2.53,5.5-.2.45-.46.71-.72.71a.55.55,0,0,1-.59-.59c0-.71.63-2,1.82-3.92.3-.57,1.27-2.57,1.9-4.23a14.6,14.6,0,0,0,1.18-4.88c0-1.27-.47-1.88-1.26-1.88-1.7,0-4.23,2.63-6.07,5.2A26.08,26.08,0,0,0,14.58,59c-.87,1.76-2,4.33-2.57,5.6-.2.45-.46.71-.72.71a.55.55,0,0,1-.59-.59c0-.71.63-2,1.82-3.92.3-.59,1.29-2.63,1.94-4.33A14,14,0,0,0,15.64,52a2.05,2.05,0,0,0-1.22-2.11c-.48,3-3.42,6.88-6,6.88a2,2,0,0,1-2.18-2.2c0-2.86,3.84-5.67,7.22-5.71a2.19,2.19,0,0,0-.26-1.11.67.67,0,0,1-.12-.33.47.47,0,0,1,.48-.44c.47,0,.93.69.95,2a3,3,0,0,1,2.29,3A7.11,7.11,0,0,1,16.42,54.19Zm-3-4.51c-2.87,0-6.09,2.45-6.09,4.92a1.09,1.09,0,0,0,1.13,1.25C10.56,55.85,13,52.31,13.39,49.68Z"/><path d="M45.41,60.61a.42.42,0,0,1,.35-.23.41.41,0,0,1,.4.41.55.55,0,0,1-.08.28c-1.25,1.94-2.73,3.79-4.39,3.79a1.92,1.92,0,0,1-1.94-2.11,1.06,1.06,0,0,1,0-.26c-1,1.33-2.13,2.37-3.34,2.37a2.26,2.26,0,0,1-2.33-2.51c0-3,3.1-6.05,5.59-6.05a2.14,2.14,0,0,1,2,1c.18-.61.55-1,.87-1a.48.48,0,0,1,.55.48,5.21,5.21,0,0,1-.91,1.86,11.92,11.92,0,0,0-1.36,4.11c0,.89.41,1.3,1,1.3C42.93,64.05,44.26,62.39,45.41,60.61Zm-5.84,1a17.19,17.19,0,0,0,1.7-3.34c-.1-.69-.65-1.11-1.6-1.11-1.88,0-4.41,2.81-4.41,5.3,0,1,.58,1.58,1.27,1.58C37.56,64,38.62,63,39.57,61.58Z"/><path d="M55.33,60.61a.39.39,0,0,1,.34-.23.42.42,0,0,1,.41.41.48.48,0,0,1-.09.28c-1.25,1.94-2.73,3.79-4.39,3.79A1.68,1.68,0,0,1,49.86,63c0-1.8,1.91-3.74,1.91-5.16a.65.65,0,0,0-.71-.7c-1.07,0-2.83,1.31-3.83,2.51a15.76,15.76,0,0,0-2.08,4.61c-.08.26-.2.61-.61.61a.39.39,0,0,1-.4-.41,1.42,1.42,0,0,1,.08-.48c.79-2.43,1.86-5.1,2.71-7.15a.71.71,0,0,1,.65-.52.43.43,0,0,1,.48.44,3.08,3.08,0,0,1-.48,1.18l-.29.68c1.14-1.23,2.61-2.3,3.79-2.3a1.6,1.6,0,0,1,1.72,1.62c0,1.72-1.86,3.44-1.86,5.22a.8.8,0,0,0,.83.91C52.84,64.05,54.17,62.39,55.33,60.61Z"/><path d="M62.53,57.29c.18-.61.54-1,.87-1a.48.48,0,0,1,.54.48A5,5,0,0,1,63,58.64c-.5,1.12-1.09,3-1.41,4l-.69,2a10.22,10.22,0,0,0,4.51-4.06s.14-.23.33-.23a.39.39,0,0,1,.42.41.79.79,0,0,1-.08.26,10.92,10.92,0,0,1-5.54,4.61c-1,2.61-2.57,4.62-4.46,4.62a1.84,1.84,0,0,1-2-1.72c0-1.82,2-2.43,5.61-3.46.4-1.09.64-1.9.87-2.57-1,1.31-2.09,2.33-3.3,2.33a2.25,2.25,0,0,1-2.33-2.51c0-3,3.1-6.05,5.59-6.05A2.15,2.15,0,0,1,62.53,57.29ZM59.35,66c-2.71.77-4.27,1.37-4.27,2.55a.91.91,0,0,0,1,.91C57.15,69.47,58.5,68.11,59.35,66Zm2.75-7.77c-.1-.69-.64-1.11-1.59-1.11-1.89,0-4.42,2.81-4.42,5.3,0,1,.57,1.58,1.26,1.58,1,0,2.1-1.06,3-2.43A16.65,16.65,0,0,0,62.1,58.24Zm.51-5a15.43,15.43,0,0,0-2.08,1.5c-.39.34-.61.48-.87.48s-.51-.16-.51-.4.12-.38.55-.71c.6-.46,1.72-1.19,2.32-1.54a1.59,1.59,0,0,1,.81-.3c.26,0,.43.1.61.49l.77,1.59a.87.87,0,0,1,.14.43.49.49,0,0,1-.51.44.61.61,0,0,1-.6-.46Z"/><path d="M75.62,60.61a.39.39,0,0,1,.34-.23.42.42,0,0,1,.41.41.55.55,0,0,1-.08.28C75,63,73.55,64.86,71.89,64.86A1.92,1.92,0,0,1,70,62.75a1.06,1.06,0,0,1,0-.26c-1,1.33-2,2.37-3.09,2.37S65,64.15,65,62.73A12.5,12.5,0,0,1,66.53,58c.63-1.22,1-1.72,1.26-1.72a.48.48,0,0,1,.54.48,4.72,4.72,0,0,1-.87,1.86,11.45,11.45,0,0,0-1.33,4.13c0,.89.38,1.21.85,1.21.91,0,1.86-1.07,2.79-2.4a22.45,22.45,0,0,0,1.92-3.83c.47-1.07.75-1.45,1.07-1.45a.48.48,0,0,1,.55.48,5,5,0,0,1-.91,1.86A11.92,11.92,0,0,0,71,62.75c0,.89.41,1.3,1,1.3C73.13,64.05,74.46,62.39,75.62,60.61Z"/><path d="M86.16,54.19c1.64-2.34,4.37-5.42,6.69-5.42,1.32,0,2.31.89,2.31,2.81a9.27,9.27,0,0,1-.3,2.33c1.68-2.27,4.35-5.14,6.65-5.14a2.23,2.23,0,0,1,2.35,2.51c0,3.56-5.18,8.09-5.18,11.35,0,1.11.61,1.74,1.42,1.74,1.27,0,2.85-1.78,4.13-3.76a.39.39,0,0,1,.34-.23.41.41,0,0,1,.4.41.55.55,0,0,1-.08.28c-1.37,2.15-3,4.15-5,4.15a2.37,2.37,0,0,1-2.43-2.61c0-3.54,5.18-8.13,5.18-11.35,0-1-.47-1.58-1.28-1.58-1.72,0-4.25,2.63-6.09,5.2A26,26,0,0,0,93,59c-.85,1.72-2,4.25-2.53,5.5-.21.45-.47.71-.73.71a.55.55,0,0,1-.59-.59c0-.71.63-2,1.82-3.92a42.34,42.34,0,0,0,1.9-4.23A14.6,14.6,0,0,0,94,51.56c0-1.27-.47-1.88-1.26-1.88-1.7,0-4.22,2.63-6.07,5.2A26,26,0,0,0,84.32,59c-.87,1.76-2,4.33-2.57,5.6-.21.45-.47.71-.73.71a.55.55,0,0,1-.59-.59c0-.71.63-2,1.82-3.92.31-.59,1.3-2.63,1.94-4.33A14,14,0,0,0,85.37,52a2.05,2.05,0,0,0-1.22-2.11c-.48,3-3.42,6.88-6,6.88A2,2,0,0,1,76,54.52c0-2.86,3.84-5.67,7.22-5.71a2.19,2.19,0,0,0-.26-1.11.67.67,0,0,1-.12-.33.47.47,0,0,1,.48-.44c.47,0,.93.69,1,2a3,3,0,0,1,2.29,3A7.42,7.42,0,0,1,86.16,54.19Zm-3-4.51c-2.87,0-6.09,2.45-6.09,4.92a1.1,1.1,0,0,0,1.14,1.25C80.29,55.85,82.72,52.31,83.12,49.68Z"/><path d="M109.38,60.61a.39.39,0,0,1,.34-.23.41.41,0,0,1,.41.41.55.55,0,0,1-.08.28c-1.26,1.94-2.73,3.79-4.39,3.79-1.13,0-1.88-.71-1.88-2.13A12.11,12.11,0,0,1,105.29,58c.63-1.22.95-1.72,1.26-1.72a.48.48,0,0,1,.54.48,4.72,4.72,0,0,1-.87,1.86,10.74,10.74,0,0,0-1.33,4.13c0,.91.38,1.28.93,1.28C106.89,64.05,108.23,62.39,109.38,60.61Zm-1.25-7.43a.69.69,0,0,1,.73.71,1,1,0,0,1-.92,1,.68.68,0,0,1-.74-.69A1,1,0,0,1,108.13,53.18Z"/><path d="M117,63a.38.38,0,0,1,.32-.24.33.33,0,0,1,.32.34,2.35,2.35,0,0,1-2.06,1.81A1.68,1.68,0,0,1,113.83,63c0-1.8,1.9-3.74,1.9-5.16a.64.64,0,0,0-.7-.7c-1.08,0-2.84,1.31-3.83,2.51a15.5,15.5,0,0,0-2.08,4.61c-.08.26-.21.61-.61.61a.39.39,0,0,1-.4-.41,1.21,1.21,0,0,1,.08-.48c.79-2.43,1.86-5.1,2.71-7.15a.7.7,0,0,1,.64-.52.44.44,0,0,1,.49.44,3,3,0,0,1-.49,1.18l-.28.68c1.13-1.23,2.61-2.3,3.78-2.3a1.59,1.59,0,0,1,1.72,1.62c0,1.72-1.86,3.44-1.86,5.22,0,.58.31.91.79.91S116.64,63.52,117,63Z"/></g></g></svg>